<mxfile host="app.diagrams.net" modified="2023-09-17T14:12:30.097Z" agent="Mozilla/5.0 (Macintosh; Intel Mac OS X 10_15_7) AppleWebKit/537.36 (KHTML, like Gecko) Chrome/116.0.0.0 Safari/537.36" version="21.3.2" etag="xci-l0IAuvY42u5syPDR" type="github">
  <diagram name="페이지-1" id="f4ixQKkLgSAC7TWfmQaw">
    <mxGraphModel>
      <root>
        <mxCell id="0" />
        <mxCell id="1" parent="0" />
      </root>
    </mxGraphModel>
  </diagram>
</mxfile>
